<?xml version="1.0"?>
<svg xmlns="http://www.w3.org/2000/svg" xmlns:xlink="http://www.w3.org/1999/xlink" xmlns:svgjs="http://svgjs.com/svgjs" version="1.1" width="512" height="512" x="0" y="0" viewBox="0 0 512 512" style="enable-background:new 0 0 512 512" xml:space="preserve" class=""><g><g xmlns="http://www.w3.org/2000/svg"><g><g><g><path d="m414.879 394.452c0-10.208 8.275-18.483 18.483-18.483h20.253v-269.693c0-37.206-30.161-67.367-67.367-67.367h-318.881c-37.206.001-67.367 30.162-67.367 67.367v299.447c0 37.206 30.161 67.367 67.367 67.367h328.648c4.469 0 8.755-.941 12.739-2.771.021-.01.043-.02.064-.03 3.735-1.726 6.061-5.541 6.061-9.656z" fill="#93c386" data-original="#eaaadd" style="" class=""/><path d="m446.948 106.276v269.693h52.553c4.126 0 7.951-2.325 9.698-6.062.01-.021.02-.042.029-.063 1.866-4.016 2.771-8.225 2.771-12.739v-250.829c0-37.206-30.161-67.367-67.367-67.367h-65.052c37.207.001 67.368 30.162 67.368 67.367z" fill="#629365" data-original="#e490d0" style="" class=""/><path d="m417.762 464.083 85.231-85.231c2.629-2.629 4.726-5.688 6.237-9.008h-81.992c-10.208 0-18.483 8.275-18.483 18.483v81.992c3.319-1.511 6.378-3.608 9.007-6.236z" fill="#30382c" data-original="#ffceec" style="" class=""/></g></g><g><ellipse cx="256" cy="256" fill="#ffe07d" rx="143.882" ry="143.882" transform="matrix(.707 -.707 .707 .707 -106.039 256)" data-original="#ffe07d" style="" class=""/><path d="m256 112.118c-11.189 0-22.084 1.285-32.546 3.713 63.714 14.789 111.337 72.022 111.337 140.169s-47.623 125.38-111.337 140.169c10.461 2.428 21.356 3.713 32.546 3.713 79.337 0 143.882-64.545 143.882-143.882s-64.545-143.882-143.882-143.882z" fill="#ffd064" data-original="#ffd064" style="" class=""/><g><g><g><g><path d="m229.445 221.792c-4.267 0-7.726-3.459-7.726-7.726 0-5.214-4.241-9.456-9.455-9.456s-9.456 4.241-9.456 9.456c0 4.268-3.459 7.726-7.726 7.726s-7.726-3.459-7.726-7.726c0-13.734 11.174-24.908 24.908-24.908s24.908 11.174 24.908 24.908c0 4.267-3.46 7.726-7.727 7.726z" fill="#f15545" data-original="#e27d47" style="" class=""/></g><g><path d="m316.919 221.792c-4.268 0-7.726-3.459-7.726-7.726 0-5.214-4.241-9.456-9.456-9.456s-9.456 4.241-9.456 9.456c0 4.268-3.459 7.726-7.726 7.726s-7.726-3.459-7.726-7.726c0-13.734 11.174-24.908 24.908-24.908s24.908 11.174 24.908 24.908c0 4.267-3.459 7.726-7.726 7.726z" fill="#f15545" data-original="#e27d47" style="" class=""/></g></g></g></g><g><path d="m256 342.143c-32.809 0-61.793-14.199-73.841-36.174-2.051-3.741-.681-8.438 3.061-10.489 3.743-2.053 8.438-.68 10.489 3.06 9.231 16.837 33.46 28.15 60.29 28.15 26.831 0 51.059-11.313 60.291-28.15 2.049-3.741 6.745-5.114 10.489-3.06 3.741 2.051 5.112 6.747 3.06 10.489-12.046 21.975-41.03 36.174-73.839 36.174z" fill="#f15545" data-original="#e27d47" style="" class=""/></g></g></g></g></g></svg>
