<?xml version="1.0"?>
<svg xmlns="http://www.w3.org/2000/svg" xmlns:xlink="http://www.w3.org/1999/xlink" xmlns:svgjs="http://svgjs.com/svgjs" version="1.1" width="512" height="512" x="0" y="0" viewBox="0 0 512 512" style="enable-background:new 0 0 512 512" xml:space="preserve" class=""><g><g xmlns="http://www.w3.org/2000/svg"><g><g><g><path d="m504.5 110.663c0-36.116-29.277-65.393-65.393-65.393h-366.214c-36.116 0-65.393 29.277-65.393 65.393v290.674c0 36.116 29.277 65.393 65.393 65.393h319.02c7.918 0 15.511-3.145 21.11-8.744l82.734-82.734c5.599-5.599 8.744-13.192 8.744-21.11v-243.479z" fill="#82cc79" data-original="#eaaadd" style="" class=""/><g><path d="m439.107 45.27h-63.146c36.115 0 65.393 29.277 65.393 65.393v318.992l54.402-54.402c5.599-5.599 8.744-13.192 8.744-21.11v-243.48c0-36.116-29.277-65.393-65.393-65.393z" fill="#82cc79" data-original="#e490d0" style="" class=""/></g><path d="m413.022 457.986 82.734-82.734c2.552-2.552 4.587-5.521 6.054-8.744h-79.59c-9.909 0-17.942 8.033-17.942 17.942v79.59c3.223-1.466 6.193-3.502 8.744-6.054z" fill="#6a8963" data-original="#ffceec" style="" class=""/></g></g><g><ellipse cx="256" cy="256" fill="#eb8f85" rx="139.667" ry="139.667" transform="matrix(.707 -.707 .707 .707 -106.039 256)" data-original="#ffe07d" style="" class=""/><path d="m256 116.333c-10.862 0-21.437 1.247-31.592 3.604 61.847 14.356 108.074 69.912 108.074 136.063s-46.228 121.707-108.075 136.062c10.155 2.357 20.73 3.604 31.592 3.604 77.012 0 139.667-62.654 139.667-139.666s-62.654-139.667-139.666-139.667z" fill="#eb8f85" data-original="#ffd064" style="" class=""/></g></g><g><path d="m196.866 222.794c4.142 0 7.5-3.357 7.5-7.5 0-5.062 4.118-9.179 9.179-9.179s9.178 4.117 9.178 9.179c0 4.143 3.358 7.5 7.5 7.5s7.5-3.357 7.5-7.5c0-13.332-10.846-24.179-24.178-24.179s-24.179 10.847-24.179 24.179c0 4.143 3.358 7.5 7.5 7.5z" fill="#342423" data-original="#000000" style="" class=""/><path d="m289.276 215.294c0-5.062 4.117-9.179 9.179-9.179s9.179 4.117 9.179 9.179c0 4.143 3.357 7.5 7.5 7.5s7.5-3.357 7.5-7.5c0-13.332-10.847-24.179-24.179-24.179s-24.179 10.847-24.179 24.179c0 4.143 3.357 7.5 7.5 7.5s7.5-3.357 7.5-7.5z" fill="#342423" data-original="#000000" style="" class=""/><path d="m184.323 304.505c25.641 46.768 117.717 46.763 143.354 0 1.991-3.632.661-8.19-2.971-10.182-3.634-1.993-8.192-.661-10.182 2.971-19.887 36.272-97.116 36.357-117.048 0-1.991-3.631-6.548-4.964-10.182-2.971-3.632 1.991-4.962 6.55-2.971 10.182z" fill="#342423" data-original="#000000" style="" class=""/><path d="m439.107 37.77h-366.214c-40.193 0-72.893 32.7-72.893 72.893v290.674c0 40.193 32.7 72.894 72.893 72.894h319.02c9.978 0 19.357-3.886 26.413-10.94l82.733-82.733c7.055-7.056 10.94-16.436 10.94-26.413v-243.48c.001-40.195-32.698-72.895-72.892-72.895zm-27.329 410.853v-64.173c0-5.758 4.685-10.441 10.442-10.441h64.172zm85.222-94.479c0 1.658-.197 3.284-.547 4.865h-74.232c-14.029 0-25.442 11.413-25.442 25.441v74.233c-1.581.35-3.207.547-4.865.547h-319.021c-31.922 0-57.893-25.97-57.893-57.893v-290.674c0-31.923 25.971-57.893 57.893-57.893h366.214c31.922 0 57.893 25.97 57.893 57.893z" fill="#342423" data-original="#000000" style="" class=""/><path d="m395.423 266.325c-4.104-.521-7.863 2.386-8.387 6.494-3.723 29.273-16.718 55.774-37.581 76.637-51.53 51.531-135.378 51.533-186.911-.001-20.92-20.92-33.925-47.497-37.608-76.857-.516-4.11-4.261-7.029-8.375-6.508-4.11.516-7.023 4.265-6.508 8.375 4.102 32.699 18.586 62.298 41.886 85.598 57.374 57.373 150.738 57.386 208.125.001 23.235-23.236 37.708-52.75 41.854-85.352.521-4.109-2.387-7.864-6.495-8.387z" fill="#342423" data-original="#000000" style="" class=""/><path d="m360.062 151.937c-57.381-57.379-150.745-57.378-208.125.001-23.145 23.146-37.603 52.539-41.81 85.001-.532 4.107 2.366 7.869 6.474 8.401 4.105.538 7.869-2.366 8.402-6.474 3.777-29.148 16.758-55.54 37.54-76.321 51.533-51.533 135.382-51.532 186.911-.001 20.871 20.87 33.867 47.38 37.585 76.664.481 3.789 3.71 6.557 7.431 6.557.315 0 .634-.02.954-.061 4.109-.521 7.018-4.275 6.496-8.385-4.14-32.614-18.614-62.138-41.858-85.382z" fill="#342423" data-original="#000000" style="" class=""/></g></g></g></svg>
