<svg xmlns="http://www.w3.org/2000/svg" width="24.935" height="25.016" viewBox="0 0 24.935 25.016">
  <g id="ic_ajukan_pembatalan" transform="translate(-0.83 0)">
    <path id="Path_503" data-name="Path 503" d="M27.206,25.384a4.444,4.444,0,0,0,.745,6.882v.905a.925.925,0,0,1-.923.869H11.754a.924.924,0,0,1-.924-.924V10.924A.924.924,0,0,1,11.754,10H22.6a.849.849,0,0,1,.351.076V14.4a.6.6,0,0,0,.6.6h4.327a.847.847,0,0,1,.076.351v9.432a4.4,4.4,0,0,0-.747.6Z" transform="translate(-9.512 -9.512)" fill="#eff3f3"/>
    <path id="Path_504" data-name="Path 504" d="M264.144,16.484h-4.327a.6.6,0,0,1-.6-.6V11.56a.843.843,0,0,1,.249.172l4.5,4.5A.849.849,0,0,1,264.144,16.484Z" transform="translate(-245.779 -10.996)" fill="#f9abb2"/>
    <path id="Path_505" data-name="Path 505" d="M327.295,306.126a4.442,4.442,0,0,1-6.281-6.281,4.393,4.393,0,0,1,.747-.6,4.442,4.442,0,0,1,5.535,6.882Z" transform="translate(-303.319 -283.973)" fill="#f5737f"/>
    <path id="Path_506" data-name="Path 506" d="M24.321,15.527a4.937,4.937,0,0,0-5.392-1.06V5.839a1.328,1.328,0,0,0-.391-.945l-4.5-4.5a1.334,1.334,0,0,0-.361-.256h0L13.655.126,13.619.11A1.34,1.34,0,0,0,13.09,0H2.242A1.414,1.414,0,0,0,.83,1.412V23.6a1.414,1.414,0,0,0,1.412,1.412H17.517a1.415,1.415,0,0,0,1.41-1.327c0-.01,0-.02,0-.029v-.1a4.929,4.929,0,0,0,5.393-8.031ZM17.263,5H14.037a.108.108,0,0,1-.108-.108V1.666Zm.689,18.642a.437.437,0,0,1-.435.4H2.242a.437.437,0,0,1-.436-.436V1.412A.437.437,0,0,1,2.242.976H12.953V4.892a1.085,1.085,0,0,0,1.084,1.084h3.916v9.037a4.93,4.93,0,0,0,0,8v.631Zm5.679-1.833a3.953,3.953,0,1,1,1.158-2.8A3.958,3.958,0,0,1,23.63,21.808Z" transform="translate(0 0)"/>
    <path id="Path_507" data-name="Path 507" d="M61.785,140.356h6.8a.488.488,0,1,0,0-.976h-6.8a.488.488,0,1,0,0,.976Z" transform="translate(-57.516 -132.577)"/>
    <path id="Path_508" data-name="Path 508" d="M70.287,319.3h-8.5a.488.488,0,0,0,0,.976h8.5a.488.488,0,0,0,0-.976Z" transform="translate(-57.516 -303.714)"/>
    <path id="Path_509" data-name="Path 509" d="M70.287,379.271h-8.5a.488.488,0,1,0,0,.976h8.5a.488.488,0,1,0,0-.976Z" transform="translate(-57.516 -360.76)"/>
    <path id="Path_510" data-name="Path 510" d="M73.031,259.326H61.785a.488.488,0,1,0,0,.976H73.031a.488.488,0,0,0,0-.976Z" transform="translate(-57.516 -246.669)"/>
    <path id="Path_511" data-name="Path 511" d="M60.785,200.976h8.805a.488.488,0,1,0,0-.976H60.785a.488.488,0,1,0,0,.976Z" transform="translate(-56.565 -190.239)"/>
    <circle id="Ellipse_19" data-name="Ellipse 19" cx="0.488" cy="0.488" r="0.488" transform="translate(14.967 9.761)"/>
    <path id="Path_512" data-name="Path 512" d="M376.012,351.394a.488.488,0,0,0-.69,0l-1.036,1.036-1.019-1.019a.488.488,0,0,0-.69.69l1.019,1.019-1.036,1.036a.488.488,0,0,0,.69.69l1.036-1.036,1.019,1.019a.488.488,0,0,0,.69-.69l-1.019-1.019,1.036-1.036A.488.488,0,0,0,376.012,351.394Z" transform="translate(-353.451 -334.108)"/>
  </g>
</svg>
