<svg xmlns="http://www.w3.org/2000/svg" width="24.935" height="22.353" viewBox="0 0 24.935 22.353">
  <g id="ic_batal" transform="translate(0.001 0)">
    <path id="Path_531" data-name="Path 531" d="M86.39,13.376a.73.73,0,0,1-.731-.731V11.177A9.716,9.716,0,0,0,68.049,5.511a.731.731,0,0,1-1.186-.853A11.164,11.164,0,0,1,75.943,0,11.178,11.178,0,0,1,87.121,11.177v1.468a.731.731,0,0,1-.731.731Zm0,0" transform="translate(-63.476 0)"/>
    <path id="Path_532" data-name="Path 532" d="M255.981,0h0V1.461h0a9.728,9.728,0,0,1,9.717,9.717v1.468a.731.731,0,0,0,1.461,0V11.178A11.178,11.178,0,0,0,255.981,0Zm0,0" transform="translate(-243.514 0)"/>
    <path id="Path_533" data-name="Path 533" d="M431.05,237.6a.731.731,0,0,1-.548-.247l-1.29-1.46a.731.731,0,0,1,1.1-.967l.742.84.742-.84a.731.731,0,1,1,1.1.967l-1.29,1.46A.731.731,0,0,1,431.05,237.6Zm0,0" transform="translate(-408.136 -223.254)" fill="#f9abb2"/>
    <path id="Path_534" data-name="Path 534" d="M37.666,197.685a11.178,11.178,0,0,1-11.177-11.178v-1.468a.731.731,0,1,1,1.461,0v1.468a9.716,9.716,0,0,0,17.611,5.667.73.73,0,0,1,1.186.853,11.164,11.164,0,0,1-9.08,4.658Zm0,0" transform="translate(-25.199 -175.333)"/>
    <path id="Path_535" data-name="Path 535" d="M264.9,339.706a.731.731,0,0,0-1.02.167,9.7,9.7,0,0,1-7.894,4.05h0v1.461h0a11.164,11.164,0,0,0,9.08-4.658A.731.731,0,0,0,264.9,339.706Zm0,0" transform="translate(-243.514 -323.031)"/>
    <path id="Path_536" data-name="Path 536" d="M.73,167.23a.731.731,0,0,1-.547-1.214l1.29-1.46a.731.731,0,0,1,1.1,0l1.29,1.46a.731.731,0,1,1-1.1.967l-.742-.84-.742.84a.729.729,0,0,1-.548.247Zm0,0" transform="translate(0 -156.307)" fill="#f9abb2"/>
    <path id="Path_545" data-name="Path 545" d="M17.486,10a7.619,7.619,0,0,1,7.486,7.486,7.619,7.619,0,0,1-7.486,7.486A7.619,7.619,0,0,1,10,17.486,7.619,7.619,0,0,1,17.486,10Z" transform="translate(-5.033 -6.543)" fill="#f5737f"/>
    <g id="prohibition" transform="translate(7.11 5.6)">
      <path id="Path_530" data-name="Path 530" d="M5.327,0a5.327,5.327,0,1,0,5.327,5.327A5.345,5.345,0,0,0,5.327,0ZM1.269,5.327a4.049,4.049,0,0,1,6.4-3.3L5.327,4.372l-3.3,3.3A4.029,4.029,0,0,1,1.269,5.327ZM5.327,9.384A4.029,4.029,0,0,1,2.98,8.629L8.629,2.98a4.049,4.049,0,0,1-3.3,6.4Z" transform="translate(0 0)" fill="#fff"/>
    </g>
  </g>
</svg>
