<svg xmlns="http://www.w3.org/2000/svg" width="23.351" height="23.351" viewBox="0 0 23.351 23.351">
  <g id="ic_batal_sukses" transform="translate(-2.978 -2.073)">
    <path id="Path_545" data-name="Path 545" d="M21.676,10A11.883,11.883,0,0,1,33.351,21.676,11.883,11.883,0,0,1,21.676,33.351,11.883,11.883,0,0,1,10,21.676,11.883,11.883,0,0,1,21.676,10Z" transform="translate(-7.022 -7.927)" fill="rgba(0,191,154,0.98)"/>
    <g id="prohibition" transform="translate(6.32 5.415)">
      <path id="Path_530" data-name="Path 530" d="M8.307,0a8.307,8.307,0,1,0,8.307,8.307A8.336,8.336,0,0,0,8.307,0ZM1.98,8.307a6.315,6.315,0,0,1,9.988-5.15l-3.66,3.66-5.15,5.15A6.283,6.283,0,0,1,1.98,8.307Zm6.328,6.328a6.284,6.284,0,0,1-3.66-1.178l8.81-8.81a6.315,6.315,0,0,1-5.15,9.988Z" transform="translate(0 0)" fill="#fff"/>
    </g>
  </g>
</svg>
