<svg id="ic_delete" xmlns="http://www.w3.org/2000/svg" width="38" height="38" viewBox="0 0 38 38">
  <path id="Path_90" data-name="Path 90" d="M19,0A19,19,0,1,1,0,19,19.021,19.021,0,0,1,19,0Z" fill="#f44336"/>
  <path id="Path_91" data-name="Path 91" d="M8.967,20.721a1.583,1.583,0,1,0,2.239,2.239L15.963,18.2l4.758,4.758a1.583,1.583,0,0,0,2.239-2.239L18.2,15.964l4.758-4.758a1.583,1.583,0,0,0-2.239-2.239l-4.758,4.758L11.205,8.967a1.583,1.583,0,0,0-2.239,2.239l4.758,4.758Z" transform="translate(3.037 3.037)" fill="#fafafa"/>
</svg>
