<?xml version="1.0" encoding="UTF-8"?>
<!DOCTYPE svg PUBLIC "-//W3C//DTD SVG 1.1//EN" "http://www.w3.org/Graphics/SVG/1.1/DTD/svg11.dtd">
<!-- Creator: CorelDRAW X7 -->
<svg xmlns="http://www.w3.org/2000/svg" xml:space="preserve" width="5.25304in" height="1.38683in" version="1.1" style="shape-rendering:geometricPrecision; text-rendering:geometricPrecision; image-rendering:optimizeQuality; fill-rule:evenodd; clip-rule:evenodd"
viewBox="0 0 5253 1387"
 xmlns:xlink="http://www.w3.org/1999/xlink">
 <defs>
  <style type="text/css">
   <![CDATA[
    .fil0 {fill:#418637}
    .fil1 {fill:#FEFEFE;fill-rule:nonzero}
    .fil2 {fill:#AC1E2A;fill-rule:nonzero}
    .fil3 {fill:#418637;fill-rule:nonzero}
   ]]>
  </style>
 </defs>
 <g id="Layer_x0020_1">
  <metadata id="CorelCorpID_0Corel-Layer"/>
  <path class="fil0" d="M0 1067l3812 0c63,0 67,-100 100,-150l0 295c-70,22 -100,88 -114,171l-3798 3 0 -319z"/>
  <polygon class="fil1" points="3707,1310 3530,1180 3530,1310 3502,1310 3502,1144 3529,1144 3695,1267 3695,1144 3722,1144 3722,1310 "/>
  <polygon class="fil1" points="3127,1310 3127,1193 3042,1310 3016,1310 2931,1194 2931,1310 2902,1310 2902,1144 2932,1144 3030,1280 3129,1144 3156,1144 3156,1310 "/>
  <path class="fil1" d="M2681 1310c-10,0 -18,-1 -24,-3 -7,-2 -12,-5 -17,-8 -4,-4 -7,-8 -9,-13 -2,-5 -3,-10 -3,-16l0 -126 32 0 0 126c0,10 7,15 21,15l103 0c14,0 21,-5 21,-15l0 -126 31 0 0 126c0,6 0,11 -2,16 -1,5 -3,9 -6,13 -4,3 -8,6 -14,8 -6,2 -14,3 -23,3l-110 0z"/>
  <polygon class="fil1" points="2267,1310 2204,1236 2150,1236 2150,1310 2118,1310 2118,1144 2150,1144 2150,1211 2203,1211 2266,1144 2303,1144 2229,1221 2303,1310 "/>
  <path class="fil1" d="M1802 1310c-39,0 -59,-12 -59,-36l0 -94c0,-24 20,-36 59,-36l131 0 0 24 -131 0c-18,0 -28,4 -28,12l0 94c0,8 10,11 28,11l74 0c18,0 28,-3 28,-10l0 -56 31 0 0 56c0,23 -20,35 -59,35l-74 0z"/>
  <polygon class="fil1" points="1662,1310 1484,1180 1484,1310 1457,1310 1457,1144 1484,1144 1650,1267 1650,1144 1677,1144 1677,1310 "/>
  <path class="fil1" d="M1235 1310c-9,0 -17,-1 -24,-3 -6,-2 -12,-5 -16,-8 -4,-4 -7,-8 -9,-13 -2,-5 -3,-10 -3,-16l0 -126 32 0 0 126c0,10 6,15 20,15l104 0c14,0 20,-5 20,-15l0 -126 32 0 0 126c0,6 -1,11 -2,16 -1,5 -3,9 -7,13 -3,3 -8,6 -14,8 -6,2 -13,3 -23,3l-110 0z"/>
  <path class="fil1" d="M969 1249l0 61 -32 0 0 -166 137 0c9,0 17,1 24,3 6,1 12,4 16,8 4,3 7,8 9,12 2,5 3,11 3,17l0 24c0,6 -1,12 -3,17 -2,5 -5,9 -9,12 -4,4 -10,7 -16,9 -7,2 -15,3 -24,3l-105 0zm125 -65c0,-11 -7,-16 -20,-16l-105 0 0 56 105 0c13,0 20,-5 20,-15l0 -25z"/>
  <polygon class="fil1" points="841,1310 841,1193 757,1310 731,1310 646,1194 646,1310 617,1310 617,1144 646,1144 745,1280 843,1144 870,1144 870,1310 "/>
  <polygon class="fil1" points="530,1310 444,1176 413,1224 464,1224 480,1249 397,1249 357,1310 322,1310 433,1144 456,1144 565,1310 "/>
  <polygon class="fil1" points="247,1310 184,1236 130,1236 130,1310 98,1310 98,1144 130,1144 130,1211 183,1211 246,1144 283,1144 209,1221 283,1310 "/>
  <g id="_2135405235184">
   <path class="fil0" d="M4901 981c216,-139 206,-535 352,-854 -347,153 -732,29 -1071,263 -201,138 -275,587 -383,860 373,-148 755,-44 1102,-269z"/>
   <g>
    <path class="fil1" d="M5216 166c-96,115 -271,319 -405,358 -155,45 -312,34 -445,45 -45,4 -70,10 -76,28 -4,13 26,11 68,8 75,-6 42,-3 123,-10 147,-22 4,183 -105,192 -123,10 -278,-13 -301,-114 1,2 2,3 3,5 28,62 123,82 187,87 32,3 65,3 97,1 27,-2 56,-18 79,-36 21,-17 42,-40 56,-63 6,-10 16,-31 12,-42 -5,-11 -32,-9 -42,-8l-1 0 -1 1c-42,3 -84,6 -126,8 -17,1 -35,3 -51,2 -16,0 -35,-3 -39,-21 -1,-5 -1,-11 0,-16 13,-42 70,-44 101,-46 74,-6 147,-5 221,-8 76,-4 154,-11 231,-33 110,-31 253,-182 350,-293 -50,14 -101,25 -151,33 -82,13 -163,22 -245,31 -63,7 -125,14 -188,23 -58,8 -116,18 -174,33 -44,11 -98,27 -149,49 246,-142 692,-102 971,-214z"/>
    <path class="fil1" d="M3846 1207c97,-114 271,-319 406,-358 154,-45 311,-34 444,-45 46,-4 71,-10 76,-28 4,-13 -25,-11 -68,-8 -75,6 -42,3 -123,10 -147,22 -4,-183 106,-192 122,-10 277,14 300,114 -1,-1 -2,-3 -2,-4 -29,-62 -124,-83 -187,-88 -32,-3 -65,-3 -98,-1 -27,2 -56,19 -79,37 -21,16 -42,39 -56,63 -5,9 -16,31 -11,41 5,12 32,9 42,8l0 0 1 0c42,-4 84,-6 126,-9 17,-1 35,-3 52,-2 16,1 34,4 38,21 2,5 1,11 0,16 -13,42 -69,44 -101,47 -74,5 -147,4 -220,7 -77,4 -155,12 -232,33 -110,31 -252,182 -349,293 50,-14 101,-24 150,-33 82,-13 164,-22 245,-31 63,-7 125,-13 188,-22 58,-9 116,-19 174,-33 44,-12 98,-27 149,-50 -246,143 -691,103 -971,214z"/>
   </g>
  </g>
  <g id="_2135405237872">
   <path class="fil2" d="M3507 1c42,3 55,28 51,66 -4,33 -24,107 -59,223l106 0 -33 5c-63,13 -96,43 -108,87l-144 529c-7,23 9,23 28,20 12,-2 41,-9 88,-26 -71,50 -133,75 -186,75l-5 0c-26,0 -47,-14 -51,-37 -2,-10 -3,-20 -1,-30 7,-33 65,-243 183,-629 27,-100 42,-170 48,-208 5,-30 15,-56 -26,-44 26,-18 80,-34 109,-31z"/>
   <path class="fil3" d="M2456 290c39,3 58,26 51,60 -41,189 -110,371 -151,555 -7,30 -2,48 10,48 4,0 10,0 15,-2 -18,20 -80,29 -98,29 -42,0 -61,-26 -56,-67 19,-155 111,-375 150,-548 7,-30 -2,-43 -8,-47 -7,-4 -13,-3 -22,-2 43,-18 79,-29 109,-26z"/>
   <path class="fil3" d="M2517 9c53,3 58,70 52,107 -8,50 -46,83 -93,84 -46,1 -62,-61 -55,-95 10,-53 42,-99 96,-96z"/>
   <path class="fil3" d="M1827 290c39,2 59,26 51,60 -37,165 -117,367 -150,546 -4,21 6,37 27,35 36,-4 63,-40 75,-81 80,-276 132,-436 139,-485 4,-31 0,-41 -8,-45 -8,-3 -17,0 -25,1 22,-20 85,-34 111,-31 39,3 59,26 51,60 -39,182 -108,358 -149,541 -6,26 6,40 26,40 43,0 63,-50 94,-142 78,-239 116,-379 121,-419 2,-14 8,-52 -14,-52l-11 0c20,-12 70,-31 102,-28 38,3 58,26 51,60 -27,127 -95,353 -137,477 -47,134 -141,153 -253,153 -30,0 -74,-2 -95,-29 -39,19 -81,29 -124,29 -36,0 -119,-11 -111,-64 25,-174 110,-370 151,-551 6,-30 0,-40 -7,-44 -7,-5 -18,-1 -26,0 22,-15 71,-34 111,-31z"/>
   <path class="fil2" d="M1102 1c42,2 54,28 50,66 -4,33 -57,213 -159,540 66,-27 97,-46 103,-54 22,-30 27,-82 52,-165 18,-60 47,-102 115,-98 15,0 68,17 78,28 -44,0 -55,23 -67,64 -30,92 -53,145 -113,188 29,12 40,43 34,92 -2,18 -24,92 -61,226 -7,24 -14,64 3,65 7,1 15,0 22,-2 -23,22 -74,29 -102,29 -40,0 -57,-26 -51,-78l1 -6c4,-30 25,-116 66,-260l1 -8c-2,-14 -11,-21 -29,-21 -38,6 -58,14 -60,26 -40,135 -66,227 -78,277 -5,22 1,38 10,42 3,1 11,1 20,-1 -14,12 -68,29 -98,29 -25,0 -47,-14 -56,-36 -3,-7 -3,-21 0,-31l242 -846c7,-24 -1,-37 -23,-37l-12 1c17,-13 74,-32 112,-30z"/>
   <path class="fil2" d="M824 290c43,0 66,24 57,66 -39,167 -111,370 -151,549 -6,30 1,45 7,47 8,2 18,-3 26,-4 -24,26 -90,35 -111,32 -39,-5 -56,-25 -52,-55 -65,37 -118,55 -159,55 -43,0 -62,-25 -57,-67 8,-61 38,-168 93,-320 20,-53 105,-99 178,-92 20,1 42,13 52,28 -45,-5 -71,8 -91,34 -38,50 -84,252 -102,330 -5,25 5,38 23,38 17,0 49,-10 65,-18 7,-40 52,-181 130,-453 8,-28 28,-87 0,-75 -57,24 -97,40 -124,40 -30,0 -55,-11 -74,-34 83,6 82,-12 153,-58 53,-34 102,-43 137,-43z"/>
   <path class="fil2" d="M463 290c30,15 47,35 45,72 -1,27 -10,47 -29,55l-122 43 26 -87c8,-25 -8,-45 -39,-46 -45,0 -60,72 -65,113 -8,63 26,126 84,205 26,35 27,73 23,104l0 6c-12,96 -63,169 -155,216 -50,26 -152,20 -185,9 -27,-9 -45,-38 -43,-67 1,-22 9,-45 25,-57 67,-27 109,-43 127,-46l-32 106c-4,17 13,27 31,27l7 0c61,0 68,-64 74,-110 19,-156 -118,-192 -99,-344 12,-97 55,-163 129,-197 53,-24 142,-29 198,-2z"/>
   <path class="fil2" d="M2873 290c31,15 48,35 46,72 -2,27 -11,47 -30,55l-122 43 27 -87c7,-25 -9,-45 -39,-46 -46,0 -61,72 -66,113 -8,63 27,126 85,205 25,35 27,73 23,104l-1 6c-12,96 -63,169 -154,216 -50,26 -152,20 -185,9 -28,-9 -45,-38 -44,-67 1,-22 9,-45 25,-57 67,-27 110,-43 127,-46l-31 106c-5,17 12,27 30,27l7 0c61,0 68,-64 74,-110 19,-156 -118,-192 -99,-344 12,-97 55,-163 130,-197 52,-24 141,-29 197,-2z"/>
   <path class="fil2" d="M1622 290c42,0 65,24 56,66 -38,167 -110,370 -150,549 -7,30 0,45 6,47 9,2 18,-3 27,-4 -24,26 -91,35 -112,32 -38,-5 -55,-25 -52,-55 -65,37 -118,55 -159,55 -43,0 -62,-25 -57,-67 8,-61 38,-168 94,-320 19,-53 104,-99 177,-92 20,1 43,13 53,28 -45,-5 -71,8 -91,34 -38,50 -85,252 -102,330 -6,25 4,38 22,38 17,0 49,-10 65,-18 8,-40 53,-181 130,-453 8,-28 28,-87 0,-75 -56,24 -96,40 -124,40 -30,0 -55,-11 -74,-34 84,6 82,-12 153,-58 53,-34 102,-43 138,-43z"/>
   <path class="fil2" d="M3235 290c43,0 66,24 56,66 -38,167 -110,370 -150,549 -7,30 1,45 7,47 8,2 18,-3 26,-4 -24,26 -91,35 -112,32 -38,-5 -55,-25 -51,-55 -65,37 -118,55 -159,55 -43,0 -62,-25 -57,-67 7,-61 38,-168 93,-320 20,-53 105,-99 177,-92 20,1 43,13 53,28 -45,-5 -71,8 -91,34 -38,50 -84,252 -102,330 -5,25 4,38 22,38 18,0 50,-10 65,-18 8,-40 53,-181 130,-453 8,-28 28,-87 1,-75 -57,24 -97,40 -124,40 -31,0 -55,-11 -74,-34 83,6 82,-12 152,-58 53,-34 102,-43 138,-43z"/>
   <path class="fil2" d="M3891 290c42,0 66,24 56,66 -38,167 -110,370 -150,549 -7,30 0,45 6,47 9,2 18,-3 27,-4 -24,26 -91,35 -112,32 -38,-5 -55,-25 -51,-55 -65,37 -119,55 -160,55 -43,0 -62,-25 -56,-67 7,-61 37,-168 93,-320 19,-53 104,-99 177,-92 20,1 43,13 53,28 -45,-5 -71,8 -91,34 -38,50 -85,252 -102,330 -6,25 4,38 22,38 17,0 49,-10 65,-18 8,-40 53,-181 130,-453 8,-28 28,-87 0,-75 -56,24 -96,40 -124,40 -30,0 -55,-11 -74,-34 84,6 82,-12 153,-58 53,-34 102,-43 138,-43z"/>
  </g>
  <polygon class="fil1" points="2550,1310 2464,1176 2433,1224 2484,1224 2500,1249 2417,1249 2377,1310 2342,1310 2453,1144 2476,1144 2586,1310 "/>
  <polygon class="fil1" points="3415,1310 3329,1176 3298,1224 3349,1224 3365,1249 3282,1249 3242,1310 3207,1310 3318,1144 3341,1144 3451,1310 "/>
 </g>
</svg>
